<?xml version="1.0" standalone="no"?>
<!DOCTYPE svg PUBLIC "-//W3C//DTD SVG 20010904//EN"
 "http://www.w3.org/TR/2001/REC-SVG-20010904/DTD/svg10.dtd">
<svg version="1.0" xmlns="http://www.w3.org/2000/svg"
 width="512.000000pt" height="512.000000pt" viewBox="0 0 512.000000 512.000000"
 preserveAspectRatio="xMidYMid meet">
<metadata>
Created by potrace 1.14, written by Peter Selinger 2001-2017
</metadata>
<g transform="translate(0.000000,512.000000) scale(0.100000,-0.100000)"
fill="#000000" stroke="none">
<path d="M4143 5110 c-42 -10 -112 -51 -145 -87 -45 -47 -79 -134 -79 -202 0
-33 2 -64 5 -69 3 -6 -16 -15 -42 -22 -62 -15 -213 -91 -282 -142 -137 -100
-300 -301 -393 -483 -85 -167 -164 -379 -202 -546 l-18 -77 -81 -22 c-45 -12
-88 -23 -96 -25 -133 -26 -180 -58 -180 -121 0 -46 24 -80 65 -94 27 -9 51 -6
136 15 57 15 111 28 119 30 8 2 45 12 81 21 65 18 67 18 150 -5 170 -46 317
-138 374 -235 49 -85 66 -263 35 -376 -53 -197 -226 -345 -450 -387 -399 -74
-855 71 -1214 387 -88 77 -216 212 -291 305 -69 86 -169 225 -162 225 2 0 26
-7 53 -15 80 -24 188 -44 268 -51 74 -6 76 -6 106 24 38 39 42 97 8 137 -23
25 -35 29 -185 50 -134 19 -334 95 -573 218 -383 197 -426 218 -489 238 -134
42 -251 22 -319 -56 -56 -63 -76 -119 -76 -210 0 -93 17 -146 94 -289 55 -104
56 -108 46 -196 -26 -223 7 -350 125 -477 29 -32 35 -46 37 -88 7 -171 80
-306 225 -421 41 -32 82 -71 91 -85 8 -14 27 -73 41 -130 43 -170 77 -248 160
-365 137 -192 356 -330 570 -360 65 -9 87 -13 90 -16 2 -2 26 -37 54 -79 27
-42 68 -93 90 -114 22 -21 38 -41 37 -44 -2 -3 -7 -31 -10 -61 -4 -30 -15
-113 -26 -184 -11 -71 -20 -130 -20 -131 0 -1 -50 -17 -110 -36 -131 -40 -157
-58 -166 -116 -6 -39 -4 -45 28 -77 29 -29 40 -34 69 -30 49 6 57 8 133 32 38
12 70 21 71 20 1 -2 12 -39 25 -83 47 -167 51 -171 200 -181 168 -13 197 -10
225 16 33 31 41 79 21 118 -25 48 -39 53 -213 64 -27 2 -33 7 -41 38 -6 19
-19 66 -30 105 -11 38 -19 72 -17 75 1 3 6 30 9 61 4 31 8 65 10 75 2 11 7 44
12 74 4 30 9 58 10 63 1 4 2 13 3 21 1 12 15 8 64 -14 56 -25 156 -58 230 -74
24 -6 38 -28 117 -193 50 -102 90 -191 90 -197 0 -6 -37 -23 -81 -36 -101 -31
-139 -63 -139 -115 0 -50 32 -93 75 -101 25 -4 68 5 167 37 73 24 142 43 153
42 35 -2 177 -12 270 -20 50 -4 121 -7 159 -8 65 0 69 1 96 33 22 26 27 42 24
70 -4 47 -50 92 -97 93 -17 1 -43 2 -57 4 -14 1 -70 6 -125 10 -55 4 -113 9
-130 10 -16 2 -46 3 -66 4 l-35 1 -97 205 c-53 112 -97 206 -97 209 0 4 158
115 470 331 25 17 81 56 125 87 47 32 109 64 150 78 434 142 760 411 925 762
113 242 160 469 162 781 0 103 -8 247 -17 307 -2 14 -7 50 -10 80 -20 178 -94
480 -175 717 -28 81 -54 156 -57 166 -4 13 1 17 18 18 63 2 164 28 220 55 96
49 173 161 178 262 1 10 17 12 72 7 87 -8 129 5 153 46 23 39 16 93 -15 120
-25 22 -44 27 -130 38 -4 1 -3 18 2 39 10 40 13 143 5 180 -16 76 -83 154
-186 216 -25 14 -73 46 -107 70 -83 59 -177 79 -270 56z m171 -229 c23 -17 71
-49 108 -72 70 -43 99 -82 90 -125 -4 -24 -5 -24 -26 -7 -11 10 -23 20 -26 23
-35 35 -152 69 -250 73 -94 4 -98 7 -85 73 14 77 110 94 189 35z m-56 -316
c57 -11 109 -42 136 -81 21 -31 24 -47 23 -101 -2 -62 -4 -66 -43 -103 -49
-46 -100 -59 -240 -61 -137 -2 -177 -21 -187 -91 -5 -26 17 -91 61 -188 55
-122 161 -464 186 -600 2 -14 7 -36 10 -50 3 -14 7 -38 10 -55 2 -16 9 -57 14
-90 10 -53 18 -121 28 -220 6 -60 5 -312 -1 -370 -37 -358 -149 -617 -360
-831 -147 -149 -325 -255 -564 -335 -84 -29 -133 -53 -192 -94 l-80 -56 17 38
c72 170 92 240 82 280 -18 69 -112 98 -158 50 -13 -13 -37 -64 -55 -113 -78
-219 -179 -378 -341 -542 -75 -74 -120 -112 -134 -112 -40 0 -144 31 -219 66
-123 57 -210 126 -275 219 -52 73 -54 79 -127 290 -64 183 -85 215 -140 215
-37 0 -84 -24 -94 -47 -16 -41 -13 -65 19 -161 l34 -100 -51 15 c-160 46 -299
152 -396 303 -47 72 -75 142 -100 251 l-18 78 86 0 c183 2 275 38 281 112 4
44 0 56 -26 82 -32 32 -54 36 -129 20 -111 -23 -233 -14 -366 26 -69 21 -154
127 -173 217 l-7 31 166 -1 167 -1 29 33 c40 44 40 93 0 133 -16 16 -35 29
-43 30 -7 0 -67 2 -133 3 -176 3 -234 13 -268 45 -44 40 -75 100 -85 162 -7
48 -7 138 1 145 1 2 42 -10 90 -27 48 -16 118 -32 155 -35 62 -6 70 -4 95 17
36 32 48 77 32 117 -14 32 -59 62 -94 62 -72 0 -242 70 -291 120 -34 35 -119
205 -127 255 -7 42 13 94 40 104 42 16 125 -14 312 -110 375 -192 347 -174
384 -245 50 -96 178 -287 271 -404 76 -96 272 -300 345 -360 307 -251 626
-394 960 -427 454 -46 802 104 958 412 54 107 73 202 71 356 -2 182 -55 311
-176 431 -72 71 -218 149 -351 189 -91 28 -88 25 -77 55 5 13 12 36 14 51 26
143 149 429 248 578 69 103 79 116 164 200 120 117 296 206 441 221 32 4 59 8
61 9 4 4 92 -3 130 -10z"/>
<path d="M2245 3331 c-72 -30 -81 -135 -16 -174 45 -26 88 -22 122 12 76 76
-7 202 -106 162z"/>
</g>
</svg>
